<?xml version="1.0" encoding="UTF-8" standalone="no"?>
<!-- Created with Inkscape (http://www.inkscape.org/) -->

<svg
   width="105.81655mm"
   height="35.160847mm"
   viewBox="0 0 105.81655 35.160847"
   version="1.1"
   id="svg228"
   inkscape:version="1.1 (c68e22c387, 2021-05-23)"
   sodipodi:docname="swatips.svg"
   xmlns:inkscape="http://www.inkscape.org/namespaces/inkscape"
   xmlns:sodipodi="http://sodipodi.sourceforge.net/DTD/sodipodi-0.dtd"
   xmlns="http://www.w3.org/2000/svg"
   xmlns:svg="http://www.w3.org/2000/svg">
  <sodipodi:namedview
     id="namedview230"
     pagecolor="#ffffff"
     bordercolor="#666666"
     borderopacity="1.0"
     inkscape:pageshadow="2"
     inkscape:pageopacity="0.0"
     inkscape:pagecheckerboard="0"
     inkscape:document-units="mm"
     showgrid="false"
     fit-margin-top="0"
     fit-margin-left="0"
     fit-margin-right="0"
     fit-margin-bottom="0"
     inkscape:zoom="1.4574355"
     inkscape:cx="209.61477"
     inkscape:cy="-46.314229"
     inkscape:window-width="1920"
     inkscape:window-height="1003"
     inkscape:window-x="-8"
     inkscape:window-y="6"
     inkscape:window-maximized="1"
     inkscape:current-layer="layer1" />
  <defs
     id="defs225">
    <clipPath
       clipPathUnits="userSpaceOnUse"
       id="clipPath47">
      <path
         d="m 505.89514,566.43457 h 237.5 v 237.5 h -237.5 z"
         clip-rule="evenodd"
         id="path45" />
    </clipPath>
    <clipPath
       clipPathUnits="userSpaceOnUse"
       id="clipPath63">
      <path
         d="m 1167.6611,566.43457 h 237.5 v 237.5 h -237.5 z"
         clip-rule="evenodd"
         id="path61" />
    </clipPath>
    <clipPath
       clipPathUnits="userSpaceOnUse"
       id="clipPath87">
      <path
         d="m 156.25,566.43457 h 237.5 v 237.5 h -237.5 z"
         clip-rule="evenodd"
         id="path85" />
    </clipPath>
    <clipPath
       clipPathUnits="userSpaceOnUse"
       id="clipPath101">
      <path
         d="m 855.54028,565.69043 h 200.00002 v 240.625 H 855.54028 Z"
         clip-rule="evenodd"
         id="path99" />
    </clipPath>
  </defs>
  <g
     inkscape:label="Layer 1"
     inkscape:groupmode="layer"
     id="layer1"
     transform="translate(-20.788716,-129.46725)">
    <g
       id="g41"
       transform="matrix(0.08466666,0,0,0.08466666,7.5595508,81.572134)"
       style="fill:#000000">
      <g
         id="g43"
         clip-path="url(#clipPath47)"
         style="fill:#000000">
        <g
           id="g49"
           transform="matrix(3.9583333,0,0,3.9583333,505.89514,566.43457)"
           style="fill:#000000">
          <path
             d="M 30,2 C 45.441406,2 58,14.558594 58,30 58,45.441406 45.441406,58 30,58 14.558594,58 2,45.441406 2,30 2,14.558594 14.558594,2 30,2 Z m 0,58 C 46.542969,60 60,46.542969 60,30 60,13.457031 46.542969,0 30,0 13.457031,0 0,13.457031 0,30 0,46.542969 13.457031,60 30,60"
             style="fill:#000000;fill-opacity:1;fill-rule:nonzero;stroke:none"
             id="path51" />
          <path
             d="m 9,33 c 1.101561,0 2,-0.898437 2,-2 V 29 C 11,27.898438 10.101561,27 9,27 L 6.195312,27.01953 C 7.5429688,16.105469 16.105469,7.5429688 27,6.1992192 V 9 c 0,1.101561 0.898438,2 2,2 h 2 c 1.101563,0 2,-0.898439 2,-2 L 32.980469,6.195312 C 43.894531,7.5429688 52.457031,16.105469 53.800781,27 H 51 c -1.101562,0 -2,0.898438 -2,2 v 2 c 0,1.101563 0.898438,2 2,2 l 2.804688,-0.01953 C 52.457031,43.894531 43.894531,52.457031 33,53.800781 V 51 c 0,-1.101562 -0.898437,-2 -2,-2 h -2 c -1.101562,0 -2,0.898438 -2,2 l 0.01953,2.804688 C 16.105469,52.457031 7.5429688,43.894531 6.1992192,33 Z M 26.773438,55.789063 C 27.945313,55.933594 29,54.972656 29,53.800781 V 51 h 2 c 0,0 0,2.792969 0,2.800781 0,1.128907 1.09375,2.128907 2.226563,1.988282 11.824218,-1.457032 21.105468,-10.738282 22.5625,-22.5625 C 55.933594,32.054688 54.972656,31 53.800781,31 H 51 v -2 h 2.800781 C 54.953125,29 55.9375,27.960938 55.789063,26.773438 54.332031,14.949219 45.050781,5.6679692 33.226563,4.210938 32.054688,4.0664058 31,5.0273442 31,6.1992192 V 9 H 29 C 29,9 29,6.203125 29,6.1992192 29,5.039062 27.953125,4.0625 26.773438,4.210938 14.949219,5.6679692 5.6679692,14.949219 4.210938,26.773438 4.0664058,27.925781 5.046875,29 6.1992192,29 H 9 v 2 c 0,0 -2.796875,0 -2.8007808,0 -1.171875,0 -2.1367192,1.058594 -1.9882812,2.226563 1.4570312,11.824218 10.738281,21.105468 22.5625,22.5625"
             style="fill:#000000;fill-opacity:1;fill-rule:nonzero;stroke:none"
             id="path53" />
          <path
             d="m 23,26 c 0,-0.550781 0.449219,-1 1,-1 h 5 V 42.917969 C 25.613281,42.429688 23,39.519531 23,36 Z m 2,-4 c 0,-0.550781 0.449219,-1 1,-1 h 8 c 0.550781,0 1,0.449219 1,1 v 1 H 25 Z m 5,-5 c 1.300781,0 2.402344,0.839844 2.816406,2 H 27.183594 C 27.597656,17.839844 28.699219,17 30,17 Z m 7,9 v 10 c 0,3.519531 -2.613281,6.429688 -6,6.917969 V 25 h 5 c 0.550781,0 1,0.449219 1,1 z m -23,7 h 7 v 2.324219 l -3.511719,1.402344 c -0.820312,0.328125 -1.453125,1 -1.730468,1.835937 l -1.707032,5.121094 c -0.171875,0.523437 0.109375,1.089844 0.632813,1.265625 C 14.789063,44.984375 14.894531,45 15,45 c 0.417969,0 0.808594,-0.265625 0.949219,-0.683594 l 1.707031,-5.121093 c 0.09375,-0.28125 0.304688,-0.5 0.574219,-0.609375 L 21.125,37.425781 C 21.8125,41.714844 25.523438,45 30,45 c 4.476563,0 8.1875,-3.285156 8.875,-7.574219 l 2.890625,1.160157 c 0.273438,0.109375 0.484375,0.328125 0.578125,0.609375 l 1.707031,5.121093 C 44.191406,44.734375 44.582031,45 45,45 c 0.105469,0 0.210938,-0.01563 0.316406,-0.05078 0.523438,-0.175781 0.804688,-0.742188 0.632813,-1.265625 L 44.242188,38.566406 C 43.964844,37.726563 43.332031,37.054688 42.511719,36.726563 L 39,35.324219 V 33 h 7 c 0.550781,0 1,-0.449219 1,-1 0,-0.550781 -0.449219,-1 -1,-1 h -7 v -2.324219 l 3.511719,-1.402343 c 0.820312,-0.328125 1.453125,-1 1.730469,-1.835938 l 1.707031,-5.121094 c 0.171875,-0.523437 -0.109375,-1.089843 -0.632813,-1.265625 -0.53125,-0.175781 -1.089843,0.109375 -1.265625,0.632813 l -1.707031,5.121094 c -0.09375,0.28125 -0.304687,0.5 -0.574219,0.609375 L 39,26.523438 V 26 c 0,-1.300781 -0.839844,-2.402344 -2,-2.816406 V 22 C 37,20.667969 36.121094,19.546875 34.914063,19.15625 34.511719,16.800781 32.46875,15 30,15 27.53125,15 25.488281,16.800781 25.085938,19.15625 23.878906,19.546875 23,20.667969 23,22 v 1.183594 C 21.839844,23.597656 21,24.699219 21,26 v 0.523438 L 18.234375,25.414063 C 17.960938,25.304688 17.75,25.085938 17.65625,24.804688 L 15.949219,19.683594 C 15.773438,19.160156 15.210938,18.875 14.683594,19.050781 c -0.523438,0.175782 -0.804688,0.742188 -0.632813,1.265625 l 1.707032,5.117188 c 0.277343,0.839844 0.910156,1.511719 1.730468,1.839844 L 21,28.675781 V 31 h -7 c -0.550781,0 -1,0.449219 -1,1 0,0.550781 0.449219,1 1,1"
             style="fill:#000000;fill-opacity:1;fill-rule:nonzero;stroke:none"
             id="path55" />
        </g>
      </g>
    </g>
    <g
       id="g57"
       transform="matrix(0.08466666,0,0,0.08466666,7.5595508,81.572134)"
       style="fill:#000000">
      <g
         id="g59"
         clip-path="url(#clipPath63)"
         style="fill:#000000">
        <g
           id="g65"
           transform="matrix(0.45673078,0,0,0.45673078,1058.0458,456.81918)"
           style="fill:#000000">
          <path
             d="M 500,260 C 367.66406,260 260,367.66406 260,500 260,632.33594 367.66406,740 500,740 632.33594,740 740,632.33594 740,500 740,367.66406 632.33594,260 500,260 Z m 0,500 C 430.55078,760 365.26172,732.95313 316.15234,683.84766 267.04688,634.73828 240,569.44922 240,500 240,430.55078 267.04688,365.26172 316.15234,316.15234 365.26172,267.04688 430.55078,240 500,240 c 69.44922,0 134.73828,27.04688 183.84766,76.15234 C 732.95313,365.26172 760,430.55078 760,500 760,569.44922 732.95313,634.73828 683.84766,683.84766 634.73828,732.95313 569.44922,760 500,760"
             style="fill:#000000;fill-opacity:1;fill-rule:nonzero;stroke:none"
             id="path67" />
          <path
             d="m 453.67578,503.30078 h 42.71875 v 56.75 c -25.15234,-7.21094 -42.71875,-30.28515 -42.71875,-56.75"
             style="fill:#000000;fill-opacity:1;fill-rule:nonzero;stroke:none"
             id="path69" />
          <path
             d="m 546.32422,503.30078 c 0,26.46485 -17.56641,49.53906 -42.71875,56.75 v -56.75 h 42.71875"
             style="fill:#000000;fill-opacity:1;fill-rule:nonzero;stroke:none"
             id="path71" />
          <path
             d="m 453.67578,458.10547 42.71875,-18.15625 v 56.14453 h -42.71875 v -37.98828"
             style="fill:#000000;fill-opacity:1;fill-rule:nonzero;stroke:none"
             id="path73" />
          <path
             d="m 546.32422,458.10547 v 37.98828 h -42.71875 v -56.14453 l 42.71875,18.15625"
             style="fill:#000000;fill-opacity:1;fill-rule:nonzero;stroke:none"
             id="path75" />
          <path
             d="m 624.58203,564.50391 h -21.625 c 5.83985,-17.70313 9.21875,-36.91797 9.91406,-56.78125 h 27.21875 c -1.11328,20.375 -6.58203,39.60547 -15.50781,56.78125 z m -52.85937,56.02343 c 3.13672,-3.55468 6.14843,-7.33984 9.02343,-11.38671 6.33204,-8.91016 11.81641,-18.70313 16.33985,-29.19141 h 18.13281 c -11.41406,16.43359 -26.25781,30.30469 -43.49609,40.57812 z m -71.73047,19.76954 c -0.17188,0 -0.33985,0 -0.50781,-0.0156 -10.61329,-0.64844 -23.69532,-21.85547 -31.96094,-58.83203 -0.10938,-0.49609 -0.23047,-0.98828 -0.33985,-1.5 h 65.61719 c -0.10937,0.49219 -0.21484,0.98828 -0.33984,1.48437 -8.26563,36.99219 -21.34766,58.19922 -31.95703,58.84766 -0.17188,0.0156 -0.34375,0.0156 -0.51172,0.0156 z M 384.78125,579.94922 h 18.11719 c 4.53906,10.48828 10.00781,20.28125 16.35547,29.19141 2.875,4.04687 5.88672,7.83203 9.02343,11.38671 -17.23828,-10.27343 -32.08203,-24.14453 -43.49609,-40.57812 z m 2.34766,-72.22656 c 0.69531,19.86328 4.07422,39.07812 9.91406,56.78125 h -21.625 c -8.92578,-17.17578 -14.39453,-36.40625 -15.50781,-56.78125 z m -11.71094,-72.22657 h 21.625 c -5.83984,17.70313 -9.21875,36.91797 -9.91406,56.78125 h -27.21875 c 1.11328,-20.375 6.58203,-39.60546 15.50781,-56.78125 z m 52.85937,-56.02343 c -3.13671,3.55468 -6.14843,7.33984 -9.02343,11.38672 -6.34766,8.91015 -11.81641,18.70312 -16.35547,29.1914 h -18.11719 c 11.41406,-16.43359 26.25781,-30.30469 43.49609,-40.57812 z m 71.71485,-19.76953 c 0.16797,0 0.33984,0 0.51172,0.0156 10.60937,0.64844 23.6914,21.85547 31.95703,58.84766 0.125,0.49609 0.23047,0.99218 0.33984,1.48437 h -65.61719 c 0.10938,-0.51172 0.23047,-1.0039 0.33985,-1.5 8.26562,-36.97656 21.34765,-58.18359 31.96094,-58.83203 0.16796,-0.0156 0.33593,-0.0156 0.50781,-0.0156 z m 115.22656,60.34765 h -18.13281 c -4.52344,-10.48828 -10.00781,-20.28125 -16.33985,-29.1914 -2.875,-4.04688 -5.88671,-7.83204 -9.02343,-11.38672 17.23828,10.27343 32.08203,24.14453 43.49609,40.57812 z m -35.08984,0 h -31.71485 c -4.35547,-21.34765 -10.5625,-40.09765 -18.53515,-53.61328 20.55859,9.53125 38.15234,28.62109 50.25,53.61328 z M 470.13672,366.4375 c -7.98828,13.51563 -14.19531,32.26563 -18.56641,53.61328 h -31.69922 c 12.09766,-25.00781 29.69141,-44.09765 50.26563,-53.61328 z m -50.26563,213.51172 h 31.69922 c 4.3711,21.34766 10.57813,40.09766 18.56641,53.61328 -20.57422,-9.51562 -38.16797,-28.60547 -50.26563,-53.61328 z m 110.00782,53.61328 c 7.97265,-13.51562 14.17968,-32.26562 18.53515,-53.61328 h 31.71485 c -12.09766,24.99219 -29.69141,44.08203 -50.25,53.61328 z M 572.21484,500 c 0,2.60938 -0.14062,5.19141 -0.41796,7.72266 h 25.6289 c -0.77344,20.375 -4.58594,39.60547 -10.79687,56.78125 h -35.4336 c 0.80469,-5.19141 1.51563,-10.47266 2.11719,-15.83203 -5.00391,5.46875 -10.82812,10.17968 -17.28516,13.91796 -0.10546,0.64844 -0.19921,1.28125 -0.30859,1.91407 h -3.24219 c -9.76172,4.9414 -20.80468,7.72265 -32.48437,7.72265 -11.67578,0 -22.70703,-2.78125 -32.48438,-7.72265 h -3.24218 c -0.10938,-0.63282 -0.19922,-1.26563 -0.3086,-1.91407 -6.45703,-3.73828 -12.28125,-8.44921 -17.28515,-13.91796 0.60156,5.35937 1.3125,10.64062 2.13281,15.83203 h -35.4336 c -6.21093,-17.17578 -10.02343,-36.40625 -10.79687,-56.78125 h 25.60547 c -0.27735,-2.53125 -0.41797,-5.11328 -0.41797,-7.72266 0,-2.60937 0.14062,-5.19141 0.41797,-7.72266 h -25.60547 c 0.77344,-20.375 4.58594,-39.60546 10.79687,-56.78125 h 35.4336 c -0.82031,5.19141 -1.53125,10.47266 -2.13281,15.83204 5.0039,-5.46875 10.82812,-10.17969 17.28515,-13.91797 0.10938,-0.64453 0.19922,-1.28125 0.3086,-1.91407 h 3.23828 c 9.77734,-4.9414 20.80859,-7.72265 32.48437,-7.72265 11.67578,0 22.72266,2.78125 32.48438,7.72265 h 3.24609 c 0.10938,0.63282 0.20313,1.26954 0.30859,1.91407 6.45704,3.73828 12.28125,8.44922 17.28516,13.91797 -0.60156,-5.35938 -1.3125,-10.64063 -2.11719,-15.83204 h 35.4336 c 6.21093,17.17579 10.02343,36.40625 10.79687,56.78125 h -25.6289 c 0.27734,2.53125 0.41796,5.11329 0.41796,7.72266 z m 40.65625,-7.72266 c -0.69531,-19.86328 -4.07421,-39.07812 -9.91406,-56.78125 h 21.625 c 8.92578,17.17579 14.39453,36.40625 15.50781,56.78125 z M 502.48047,344.28906 c -0.49609,-0.0156 -1.00391,-0.0156 -1.5,-0.0156 -0.32422,-0.0156 -0.66406,-0.0156 -0.98828,-0.0156 -0.32422,0 -0.66406,0 -0.98828,0.0156 -0.4961,0 -1.00391,0 -1.5,0.0156 C 412.76953,345.61719 344.25,414.95313 344.25,500 c 0,85.04688 68.51953,154.38281 153.25391,155.71094 0.49609,0.0156 1.0039,0.0156 1.5,0.0156 0.32422,0.0156 0.66406,0.0156 0.98828,0.0156 0.32422,0 0.66406,0 0.98828,-0.0156 0.49609,0 1.00391,0 1.5,-0.0156 C 587.21484,654.38281 655.75,585.04688 655.75,500 c 0,-85.04687 -68.53516,-154.38281 -153.26953,-155.71094"
             style="fill:#000000;fill-opacity:1;fill-rule:nonzero;stroke:none"
             id="path77" />
          <path
             d="m 463.95703,562.58984 c 0.10938,0.64844 0.19922,1.28125 0.3086,1.91407 h 3.24218 c -1.20312,-0.60157 -2.3789,-1.25 -3.55078,-1.91407 z m 71.76172,-127.09375 c -0.87891,-5.40625 -1.85156,-10.5625 -2.91797,-15.44531 h -65.61719 c -1.05078,4.88281 -2.03906,10.03906 -2.91796,15.44531 -0.10938,0.63282 -0.19922,1.26954 -0.3086,1.91407 1.17188,-0.66407 2.34766,-1.3125 3.55078,-1.91407 9.77735,-4.9414 20.8086,-7.72265 32.48438,-7.72265 11.67969,0 22.72265,2.78125 32.48437,7.72265 1.20313,0.60157 2.39453,1.25 3.55078,1.91407 -0.10546,-0.64453 -0.19921,-1.28125 -0.30859,-1.91407 z m -3.24219,129.00782 c -9.76172,4.9414 -20.80468,7.72265 -32.48437,7.72265 -11.67578,0 -22.70703,-2.78125 -32.48438,-7.72265 -1.20312,-0.60157 -2.3789,-1.25 -3.55078,-1.91407 0.10938,0.64844 0.19922,1.28125 0.3086,1.91407 0.8789,5.40625 1.86718,10.5625 2.91796,15.44531 h 65.61719 c 1.06641,-4.88281 2.03906,-10.03906 2.91797,-15.44531 0.10938,-0.63282 0.20313,-1.26563 0.30859,-1.91407 -1.15625,0.66407 -2.34765,1.3125 -3.55078,1.91407 z m 3.24219,-129.00782 c -0.87891,-5.40625 -1.85156,-10.5625 -2.91797,-15.44531 h -65.61719 c -1.05078,4.88281 -2.03906,10.03906 -2.91796,15.44531 -0.10938,0.63282 -0.19922,1.26954 -0.3086,1.91407 1.17188,-0.66407 2.34766,-1.3125 3.55078,-1.91407 9.77735,-4.9414 20.8086,-7.72265 32.48438,-7.72265 11.67969,0 22.72265,2.78125 32.48437,7.72265 1.20313,0.60157 2.39453,1.25 3.55078,1.91407 -0.10546,-0.64453 -0.19921,-1.28125 -0.30859,-1.91407 z m -3.24219,129.00782 c -9.76172,4.9414 -20.80468,7.72265 -32.48437,7.72265 -11.67578,0 -22.70703,-2.78125 -32.48438,-7.72265 -1.20312,-0.60157 -2.3789,-1.25 -3.55078,-1.91407 0.10938,0.64844 0.19922,1.28125 0.3086,1.91407 0.8789,5.40625 1.86718,10.5625 2.91796,15.44531 h 65.61719 c 1.06641,-4.88281 2.03906,-10.03906 2.91797,-15.44531 0.10938,-0.63282 0.20313,-1.26563 0.30859,-1.91407 -1.15625,0.66407 -2.34765,1.3125 -3.55078,1.91407 z m 20.83594,-15.83203 c -5.00391,5.46875 -10.82812,10.17968 -17.28516,13.91796 -1.15625,0.66407 -2.34765,1.3125 -3.55078,1.91407 -9.76172,4.9414 -20.80468,7.72265 -32.48437,7.72265 -11.67578,0 -22.70703,-2.78125 -32.48438,-7.72265 -1.20312,-0.60157 -2.3789,-1.25 -3.55078,-1.91407 -6.45703,-3.73828 -12.28125,-8.44921 -17.28515,-13.91796 -10.08594,-11.0625 -16.82032,-25.25782 -18.48829,-40.94922 -0.27734,-2.53125 -0.41796,-5.11328 -0.41796,-7.72266 0,-2.60937 0.14062,-5.19141 0.41796,-7.72266 1.66797,-15.6914 8.40235,-29.88671 18.48829,-40.94921 5.0039,-5.46875 10.82812,-10.17969 17.28515,-13.91797 1.17188,-0.66407 2.34766,-1.3125 3.55078,-1.91407 9.77735,-4.9414 20.8086,-7.72265 32.48438,-7.72265 11.67969,0 22.72265,2.78125 32.48437,7.72265 1.20313,0.60157 2.39453,1.25 3.55078,1.91407 6.45704,3.73828 12.28125,8.44922 17.28516,13.91797 10.10156,11.0625 16.82031,25.25781 18.48828,40.94921 0.27735,2.53125 0.41797,5.11329 0.41797,7.72266 0,2.60938 -0.14062,5.19141 -0.41797,7.72266 -1.66797,15.6914 -8.38672,29.88672 -18.48828,40.94922 z m 34.01172,-56.39454 c -1.96094,-22.38281 -12.37109,-42.38281 -28.00391,-56.78125 -2.94922,-2.71875 -6.08593,-5.23437 -9.39062,-7.51953 -4.38672,-3.0625 -9.05078,-5.71484 -13.96485,-7.92578 -1.15625,-0.52344 -2.3164,-1.01953 -3.5039,-1.48437 -10.03906,-4.03125 -21.00781,-6.23828 -32.46875,-6.23828 -11.46094,0 -22.42578,2.20703 -32.46875,6.22265 -1.1875,0.48047 -2.34766,0.97656 -3.50391,1.5 -4.91406,2.21094 -9.57812,4.86328 -13.96484,7.92578 -3.30469,2.28516 -6.44141,4.80078 -9.39063,7.51953 -15.63281,14.39844 -26.04297,34.39844 -28.0039,56.78125 -0.23047,2.54688 -0.33985,5.12891 -0.33985,7.72266 0,2.59375 0.10938,5.17578 0.33985,7.72266 1.96093,22.38281 12.37109,42.38281 28.0039,56.78125 2.94922,2.71875 6.08594,5.23437 9.39063,7.51953 4.38672,3.0625 9.05078,5.71484 13.96484,7.92578 1.15625,0.52344 2.31641,1.01953 3.50391,1.5 10.04297,4.01562 21.00781,6.22266 32.46875,6.22266 11.46094,0 22.42969,-2.20704 32.46875,-6.23829 1.1875,-0.46484 2.34765,-0.96093 3.5039,-1.48437 4.91407,-2.21094 9.57813,-4.86328 13.96485,-7.92578 3.30469,-2.28516 6.4414,-4.80078 9.39062,-7.51953 15.63282,-14.39844 26.04297,-34.39844 28.00391,-56.78125 0.23047,-2.54688 0.33984,-5.12891 0.33984,-7.72266 0,-2.59375 -0.10937,-5.17578 -0.33984,-7.72266 z m -87.33203,79.94922 c -11.67578,0 -22.70703,-2.78125 -32.48438,-7.72265 -1.20312,-0.60157 -2.3789,-1.25 -3.55078,-1.91407 0.10938,0.64844 0.19922,1.28125 0.3086,1.91407 0.8789,5.40625 1.86718,10.5625 2.91796,15.44531 h 65.61719 c 1.06641,-4.88281 2.03906,-10.03906 2.91797,-15.44531 0.10938,-0.63282 0.20313,-1.26563 0.30859,-1.91407 -1.15625,0.66407 -2.34765,1.3125 -3.55078,1.91407 -9.76172,4.9414 -20.80468,7.72265 -32.48437,7.72265 z m 0,-144.45312 c 11.67969,0 22.72265,2.78125 32.48437,7.72265 1.20313,0.60157 2.39453,1.25 3.55078,1.91407 -0.10546,-0.64453 -0.19921,-1.28125 -0.30859,-1.91407 -0.87891,-5.40625 -1.85156,-10.5625 -2.91797,-15.44531 h -65.61719 c -1.05078,4.88281 -2.03906,10.03906 -2.91796,15.44531 -0.10938,0.63282 -0.19922,1.26954 -0.3086,1.91407 1.17188,-0.66407 2.34766,-1.3125 3.55078,-1.91407 9.77735,-4.9414 20.8086,-7.72265 32.48438,-7.72265 z m 32.48437,136.73047 c -9.76172,4.9414 -20.80468,7.72265 -32.48437,7.72265 -11.67578,0 -22.70703,-2.78125 -32.48438,-7.72265 -1.20312,-0.60157 -2.3789,-1.25 -3.55078,-1.91407 0.10938,0.64844 0.19922,1.28125 0.3086,1.91407 0.8789,5.40625 1.86718,10.5625 2.91796,15.44531 h 65.61719 c 1.06641,-4.88281 2.03906,-10.03906 2.91797,-15.44531 0.10938,-0.63282 0.20313,-1.26563 0.30859,-1.91407 -1.15625,0.66407 -2.34765,1.3125 -3.55078,1.91407 z m 3.24219,-129.00782 c -0.87891,-5.40625 -1.85156,-10.5625 -2.91797,-15.44531 h -65.61719 c -1.05078,4.88281 -2.03906,10.03906 -2.91796,15.44531 -0.10938,0.63282 -0.19922,1.26954 -0.3086,1.91407 1.17188,-0.66407 2.34766,-1.3125 3.55078,-1.91407 9.77735,-4.9414 20.8086,-7.72265 32.48438,-7.72265 11.67969,0 22.72265,2.78125 32.48437,7.72265 1.20313,0.60157 2.39453,1.25 3.55078,1.91407 -0.10546,-0.64453 -0.19921,-1.28125 -0.30859,-1.91407 z m -71.76172,127.09375 c 0.10938,0.64844 0.19922,1.28125 0.3086,1.91407 h 3.24218 c -1.20312,-0.60157 -2.3789,-1.25 -3.55078,-1.91407"
             style="fill:#000000;fill-opacity:1;fill-rule:nonzero;stroke:none"
             id="path79" />
        </g>
      </g>
    </g>
    <g
       id="g81"
       transform="matrix(0.08466666,0,0,0.08466666,7.5595508,81.572134)"
       style="fill:#000000">
      <g
         id="g83"
         clip-path="url(#clipPath87)"
         style="fill:#000000">
        <g
           id="g89"
           transform="matrix(4.5673075,0,0,4.5673075,128.84616,539.25909)"
           style="fill:#000000">
          <path
             d="m 23.028999,14.027 c -2.403,0 -4.663,0.937001 -6.364,2.639 -0.391001,0.391001 -0.391001,1.023001 0,1.414 0.195,0.195 0.451,0.292999 0.707001,0.292999 0.256,0 0.511999,-0.098 0.707,-0.292999 1.324,-1.324 3.082001,-2.053 4.949999,-2.053 1.869,0 3.626,0.729 4.950001,2.053 0.391001,0.391001 1.023001,0.391001 1.414,0 0.391,-0.389999 0.391,-1.023001 0,-1.414 -1.701001,-1.701999 -3.961001,-2.639 -6.364001,-2.639 z"
             style="fill:#000000;fill-opacity:1;fill-rule:nonzero;stroke:none"
             id="path91" />
          <path
             d="m 57.678001,50.605999 -15.556999,-15.556 c -0.375,-0.375 -1.039001,-0.375 -1.414001,0 L 38.584999,37.172001 35.723,34.309002 c 2.772998,-3.114 4.306999,-7.073999 4.306999,-11.278999 0,-4.541001 -1.769001,-8.810001 -4.979,-12.021 -3.209999,-3.2110003 -7.479,-4.9790004 -12.021,-4.9790004 -4.542,0 -8.810001,1.769 -12.021,4.9790004 -3.2110001,3.21 -4.9790002,7.479999 -4.9790002,12.021 0,4.541 1.769,8.810001 4.9790002,12.02 3.211,3.210999 7.479999,4.979 12.021,4.979 4.205,0 8.165001,-1.533001 11.278999,-4.306999 l 2.862,2.862999 -2.120999,2.120998 C 34.862,40.894001 34.757,41.147003 34.757,41.413002 c 0,0.265999 0.105,0.52 0.292999,0.707001 l 15.556999,15.556999 c 0.195,0.195 0.451001,0.292999 0.707001,0.292999 0.256001,0 0.512001,-0.098 0.707001,-0.292999 L 57.678001,52.02 c 0.39,-0.389999 0.39,-1.022998 0,-1.414001 z m -45.256,-16.969997 C 9.5890007,30.803001 8.0280008,27.036001 8.0280008,23.030003 c 0,-4.007 1.5609999,-7.773 4.3940002,-10.607001 2.833,-2.8329999 6.601,-4.3939998 10.607,-4.3939998 4.007,0 7.773001,1.5600004 10.606001,4.3939998 2.833,2.833 4.394001,6.600001 4.394001,10.607001 0,4.006 -1.561001,7.772998 -4.394001,10.605999 -2.833,2.833 -6.6,4.394001 -10.605999,4.394001 -4.007,-10e-4 -7.773,-1.561001 -10.607,-4.394001 z M 51.313,55.556999 37.170998,41.414001 l 4.243,-4.243 14.143001,14.143002 -4.243999,4.243 z"
             style="fill:#000000;fill-opacity:1;fill-rule:nonzero;stroke:none"
             id="path93" />
        </g>
      </g>
    </g>
    <g
       id="g95"
       transform="matrix(0.08466666,0,0,0.08466666,7.5595508,81.572134)"
       style="fill:#000000">
      <g
         id="g97"
         clip-path="url(#clipPath101)"
         style="fill:#000000">
        <g
           id="g103"
           transform="matrix(2.9851835,0,0,3.0078125,806.13184,535.6123)"
           style="fill:#000000">
          <path
             d="M 76.667,40 H 70 V 26.667 C 70,17.461 62.539001,10 53.333,10 H 46.667 C 37.460999,10 30,17.461 30,26.667 V 40 h -6.667 c -3.665001,0 -6.666,3.001999 -6.666,6.667 v 36.667 c 0,3.665001 3.000999,6.666 6.666,6.666 h 53.334 c 3.665001,0 6.666,-3.000999 6.666,-6.666 V 46.667 C 83.333,43.001999 80.332001,40 76.667,40 Z M 53.333,65.741997 V 76.667 H 46.667 V 65.741997 c -1.986,-1.152001 -3.334,-3.280998 -3.334,-5.742001 0,-3.678001 2.985001,-6.666 6.667,-6.666 3.681999,0 6.667,2.987999 6.667,6.666 0,2.461003 -1.348,4.59 -3.334,5.742001 z M 63.333,40 H 36.667 V 26.667 c 0,-5.521 4.479,-10 10,-10 h 6.666 c 5.521,0 10,4.479 10,10 z"
             style="fill:#000000;fill-opacity:1;fill-rule:nonzero;stroke:none"
             id="path105" />
        </g>
      </g>
    </g>
    <g
       id="g115"
       transform="matrix(0.26458331,0,0,0.26458331,21.282601,151.9281)"
       style="fill:#000000">
      <text
         transform="translate(5.390625,48)"
         style="font-variant:normal;font-weight:normal;font-size:1e-32px;font-family:Arial;-inkscape-font-specification:Arial;writing-mode:lr-tb;fill:#000000;fill-opacity:1;fill-rule:nonzero;stroke:none"
         id="text119"><tspan
           x="0"
           y="0"
           id="tspan117"
           style="fill:#000000">s</tspan></text>
      <text
         transform="translate(42.420723,48)"
         style="font-variant:normal;font-weight:normal;font-size:1e-32px;font-family:Arial;-inkscape-font-specification:Arial;writing-mode:lr-tb;fill:#000000;fill-opacity:1;fill-rule:nonzero;stroke:none"
         id="text123"><tspan
           x="0"
           y="0"
           id="tspan121"
           style="fill:#000000">w</tspan></text>
      <text
         transform="translate(98.78685,48)"
         style="font-variant:normal;font-weight:normal;font-size:1e-32px;font-family:Arial;-inkscape-font-specification:Arial;writing-mode:lr-tb;fill:#000000;fill-opacity:1;fill-rule:nonzero;stroke:none"
         id="text127"><tspan
           x="0"
           y="0"
           id="tspan125"
           style="fill:#000000">a</tspan></text>
      <text
         transform="translate(135.59299,48)"
         style="font-variant:normal;font-weight:normal;font-size:1e-32px;font-family:Arial;-inkscape-font-specification:Arial;writing-mode:lr-tb;fill:#000000;fill-opacity:1;fill-rule:nonzero;stroke:none"
         id="text131"><tspan
           x="0"
           y="0"
           id="tspan129"
           style="fill:#000000">t</tspan></text>
      <text
         transform="translate(164.85879,48)"
         style="font-variant:normal;font-weight:normal;font-size:1e-32px;font-family:Arial;-inkscape-font-specification:Arial;writing-mode:lr-tb;fill:#000000;fill-opacity:1;fill-rule:nonzero;stroke:none"
         id="text135"><tspan
           x="0 13.102692 50.580719"
           y="0"
           sodipodi:role="line"
           id="tspan133">ips</tspan></text>
      <text
         transform="translate(252.4696,48)"
         style="font-variant:normal;font-weight:normal;font-size:1e-32px;font-family:Arial;-inkscape-font-specification:Arial;writing-mode:lr-tb;fill:#000000;fill-opacity:1;fill-rule:nonzero;stroke:none"
         id="text139"><tspan
           x="0"
           y="0"
           id="tspan137"
           style="fill:#000000">.</tspan></text>
      <text
         transform="translate(265.5723,48)"
         style="font-variant:normal;font-weight:normal;font-size:1e-32px;font-family:Arial;-inkscape-font-specification:Arial;writing-mode:lr-tb;fill:#000000;fill-opacity:1;fill-rule:nonzero;stroke:none"
         id="text143"><tspan
           x="0 36.918121 74.022858"
           y="0"
           sodipodi:role="line"
           id="tspan141">com</tspan></text>
    </g>
    <path
       d="M 23.963716,152.83649 H 123.44704"
       style="fill:#000000;fill-opacity:1;stroke:#000000;stroke-width:0.79375;stroke-linecap:butt;stroke-linejoin:miter;stroke-miterlimit:10;stroke-dasharray:none;stroke-opacity:1"
       id="path147" />
    <path
       d="m 21.185591,151.64587 h 2.38125 v 2.38124 h -2.38125 z"
       style="fill:#ffffff;fill-opacity:1;stroke:#000000;stroke-width:0.79375;stroke-linecap:butt;stroke-linejoin:miter;stroke-miterlimit:10;stroke-dasharray:none;stroke-opacity:1"
       id="path149" />
    <path
       d="m 123.82714,151.64975 h 2.38125 v 2.38124 h -2.38125 z"
       style="fill:#ffffff;fill-opacity:1;stroke:#000000;stroke-width:0.79375;stroke-linecap:butt;stroke-linejoin:miter;stroke-miterlimit:10;stroke-dasharray:none;stroke-opacity:1"
       id="path149-0" />
    <text
       xml:space="preserve"
       style="font-style:normal;font-variant:normal;font-weight:normal;font-stretch:normal;font-size:13.6029px;line-height:1.25;font-family:'Techna Sans';-inkscape-font-specification:'Techna Sans';letter-spacing:0px;word-spacing:0px;fill:#000000;fill-opacity:1;stroke:none;stroke-width:0.340072"
       x="18.267912"
       y="208.36453"
       id="text3222"
       transform="scale(1.2853125,0.77802089)"><tspan
         sodipodi:role="line"
         id="tspan3220"
         style="font-style:normal;font-variant:normal;font-weight:normal;font-stretch:normal;font-family:'Techna Sans';-inkscape-font-specification:'Techna Sans';fill:#000000;stroke-width:0.340072"
         x="18.267912"
         y="208.36453">SwATips.com</tspan></text>
  </g>
</svg>
